<svg id="Layer_1" data-name="Layer 1" xmlns="http://www.w3.org/2000/svg" viewBox="0 0 512 512"><title>bionic</title><path d="M256,139.32A116.68,116.68,0,1,0,372.68,256,116.81,116.81,0,0,0,256,139.32Z" style="fill:#fff"/><path d="M423.53,162.68a66.16,66.16,0,1,1,66.16-66.16A66.24,66.24,0,0,1,423.53,162.68Z" style="fill:#fff"/><path d="M96.52,154.63a66.16,66.16,0,1,1,66.16-66.16A66.24,66.24,0,0,1,96.52,154.63Z" style="fill:#fff"/><path d="M415.48,489.69a66.16,66.16,0,1,1,66.16-66.16A66.24,66.24,0,0,1,415.48,489.69Z" style="fill:#fff"/><path d="M88.47,481.65a66.16,66.16,0,1,1,66.16-66.16A66.24,66.24,0,0,1,88.47,481.65Z" style="fill:#fff"/><path d="M172,64.49a208.85,208.85,0,0,1,173.69,2.57l3.27,1.56,1.43-3.33a80.22,80.22,0,0,1,23.61-31L378.14,31l-4.77-2.46a255.78,255.78,0,0,0-228.86-2.94A79.44,79.44,0,0,1,172,64.49Z" style="fill:#fff"/><path d="M465.16,256a207.88,207.88,0,0,1-22,93.36,79.56,79.56,0,0,1,37.52,29.29A255.72,255.72,0,0,0,489,149.94l-2.23-4.89-3.55,4a80.09,80.09,0,0,1-32.06,22.07l-3.4,1.26,1.4,3.35A207.41,207.41,0,0,1,465.16,256Z" style="fill:#fff"/><path d="M64.49,340a208.88,208.88,0,0,1,4.38-177.41,79.56,79.56,0,0,1-37.52-29.29,255.66,255.66,0,0,0-5.77,234.14A79.44,79.44,0,0,1,64.49,340Z" style="fill:#fff"/><path d="M340,447.51a208.88,208.88,0,0,1-177.41-4.38,79.56,79.56,0,0,1-29.29,37.52,255.66,255.66,0,0,0,234.14,5.77A79.44,79.44,0,0,1,340,447.51Z" style="fill:#fff"/></svg>