<svg id="Layer_1" data-name="Layer 1" xmlns="http://www.w3.org/2000/svg" width="500" height="500" viewBox="0 0 500 500">
  <title>browser</title>
  <path d="M250,24C125.74,24,25,124.74,25,249S125.74,474,250,474,475,373.26,475,249,374.26,24,250,24ZM451.73,232.31l-18,1.61-0.27-3,18-1.61Zm-2.18-17.49-32.65,5.73-0.52-3L449,211.86Zm-3.68-17.31-17.48,4.72-0.78-2.9,17.48-4.72Zm-5.2-16.81L409.52,192l-1-2.82,31.14-11.35ZM434,164.28l-16.37,7.63-1.27-2.72,16.37-7.63Zm-8-15.63L397.3,165.22l-1.5-2.6L424.53,146Zm-11-17.5,1.71,2.46L401.83,144l-1.71-2.46Zm-8.93-11.58-25.41,21.29-1.93-2.3,25.41-21.29Zm-24.83-25.2-21.29,25.41-2.3-1.93,21.29-25.41ZM364.89,81.8l2.46,1.72L356.9,98.39l-2.46-1.72ZM352.55,74L336,102.7l-2.6-1.5L350,72.47Zm-18.33-9.53,2.71,1.28L329.2,82.1l-2.71-1.28Zm-16.42-6.6,2.82,1L309.27,90l-2.82-1ZM301,52.64l2.9,0.78L299.16,70.9l-2.9-.78ZM283.68,49l3,0.52-5.73,32.65-3-.52Zm-17.49-2.18,3,0.27-1.61,18-3-.27ZM248,46h3V79h-3V46Zm-14.18.77,1.61,18-3,.27-1.61-18ZM216.32,49L222,81.6l-3,.52-5.73-32.65ZM199,52.64l4.72,17.48-2.9.78-4.72-17.48Zm-16.81,5.2L193.55,89l-2.82,1L179.38,58.87Zm-16.42,6.61,7.63,16.37-2.72,1.27-7.63-16.37Zm-15.73,8,16.67,28.73-2.59,1.51L147.45,74ZM135.12,81.8l10.35,14.87L143,98.38,132.65,83.52Zm-14,10.64,21.29,25.41-2.3,1.93L118.77,94.37ZM107.92,104.3l12.76,12.76-2.12,2.12L105.8,106.42Zm-12,13,25.41,21.29-1.93,2.3L93.95,119.57ZM85,131.15L99.89,141.5,98.17,144,83.31,133.61ZM75.47,146l28.73,16.57-1.5,2.6L74,148.65Zm-8.25,15.51,16.37,7.63-1.27,2.72L66,164.28Zm-6.85,16.32,31.14,11.35-1,2.82L59.34,180.7Zm-5.45,16.74,17.48,4.72-0.78,2.9-17.48-4.72Zm-4,17.25,32.65,5.73-0.52,3-32.65-5.73Zm-2.43,17.46,18,1.61-0.27,3-18-1.61ZM48,247H81v3H48v-3Zm0.27,17.68,18-1.61,0.27,3-18,1.61Zm2.18,17.49,32.65-5.73,0.52,3L51,285.13Zm3.68,17.31,17.48-4.72,0.78,2.9-17.48,4.72Zm5.2,16.81,31.14-11.35,1,2.82L60.37,319.11ZM66,332.72l16.37-7.63,1.27,2.72-16.37,7.63Zm8,15.73,28.73-16.57,1.5,2.6L75.47,351Zm11,17.4-1.71-2.46L98.17,353l1.71,2.46Zm34.34-9.71,1.93,2.3L95.88,379.73l-1.93-2.3Zm-0.59,46.49,21.29-25.41,2.3,1.93-21.29,25.41Zm16.34,12.57-2.46-1.71L143,398.61l2.46,1.71ZM147.45,423l16.67-28.73,2.59,1.51L150,424.53Zm18.32,9.53-2.71-1.28,7.73-16.37,2.71,1.28Zm16.42,6.6-2.82-1L190.73,407l2.82,1Zm16.81,5.2-2.9-.78,4.72-17.48,2.9,0.78ZM216.32,448l-3-.52,5.73-32.64,3,0.52Zm17.49,2.19-3-.27,1.61-18,3,0.27ZM251,451h-3V418h3v33Zm15.18-.77-1.61-18,3-.27,1.61,18ZM95.31,402.68l135.6-172.77L403.68,94.31,271.09,270.09ZM283.68,448L278,415.4l3-.52,5.73,32.64ZM301,444.36l-4.72-17.48,2.9-.78,4.72,17.48Zm16.81-5.2L306.45,408l2.82-1,11.35,31.14Zm16.42-6.6-7.73-16.37,2.71-1.28,7.73,16.37Zm15.73-8L333.38,395.8l2.6-1.5L352.55,423Zm14.93-9.33-10.35-14.87,2.46-1.71,10.35,14.87Zm14-10.64-21.29-25.41,2.3-1.93,21.29,25.41Zm13.15-11.86-12.76-12.76,2.12-2.12,12.76,12.76Zm12-13-25.41-21.29,1.93-2.3,25.41,21.29ZM415,365.85L400.11,355.5l1.71-2.46,14.87,10.35Zm9.55-14.8L395.8,334.47l1.5-2.6L426,348.45Zm8.25-15.61L416.4,327.7l1.28-2.71,16.37,7.73Zm6.86-16.32-31.14-11.35,1-2.82,31.14,11.35Zm5.45-16.74-17.48-4.72,0.78-2.9,17.48,4.72Zm4-17.25-32.65-5.73,0.52-3,32.65,5.73Zm2.43-17.46-18-1.61,0.27-3,18,1.61ZM419,250v-3h33v3H419Z" style="fill: #cad0dc"/>
</svg>
