<svg id="Layer_1" data-name="Layer 1" xmlns="http://www.w3.org/2000/svg" width="500" height="500" viewBox="0 0 500 500">
  <title>browser</title>
  <g>
    <path d="M250,365.14a111.47,111.47,0,0,1-62.41-18.45q-28.14-18.46-42.19-47.46L53.13,137.5C33.79,172.08,25,210.75,25,250q0,84.38,54.93,147.22T216.6,472.37l65.26-112.94C275.3,361.36,264.34,365.14,250,365.14Z" style="fill: #cad0dc"/>
    <path d="M179.25,159C200,142.93,223.63,137.5,250,137.5H443.36c-19.93-34-47-62.69-81.3-82.62S290.43,25,250,25q-52.73,0-98.44,22.42C121.09,62.35,92.89,84.1,72.24,112L137.5,221.88C143.94,196.69,158.44,175.16,179.25,159Z" style="fill: #cad0dc"/>
    <path d="M458.08,165.63H327.34c22.85,22.85,37.8,52.16,37.8,84.38a115.08,115.08,0,0,1-20.22,65.92L252.64,475q92.29-.89,157.33-66.8T475,250C475,221.3,470.16,191.11,458.08,165.63Z" style="fill: #cad0dc"/>
    <circle cx="250" cy="250" r="84.38" style="fill: #cad0dc"/>
  </g>
</svg>
