<svg id="Layer_1" data-name="Layer 1" xmlns="http://www.w3.org/2000/svg" width="500" height="500" viewBox="0 0 500 500">
  <title>browser</title>
  <path d="M457.37,236.5c0-124.5-87-210-202.5-211.5C138.63,26.5,57.63,109.75,42.63,226c42-69,125.25-115.5,198.75-115.5,60,0,92.25,32.25,92.25,96H173.13c3-27,15-54.75,31.5-71.25C140.13,161.5,95.13,220,95.13,298.75c0,97.5,75,176.25,184.5,176.25,55.5,0,100.5-12,139.5-32.25V347.5a240.32,240.32,0,0,1-123.75,33.75c-69.75,0-120-33.75-120-95.25h282V236.5Z" style="fill: #cad0dc"/>
</svg>
