<svg id="Layer_1" data-name="Layer 1" xmlns="http://www.w3.org/2000/svg" width="500" height="500" viewBox="0 0 500 500">
  <title>browser</title>
  <g>
    <path d="M250.77,77.89c-104,0-188.41,84.8-188.41,189.4C62.15,372,146.62,456.7,250.67,456.7s188.52-84.83,188.52-189.41S354.82,77.89,250.77,77.89Zm-0.08,345.86c-85.94,0-155.71-70-155.54-156.46,0-86.39,69.69-156.44,155.63-156.44S406.4,180.91,406.4,267.29,336.71,423.74,250.68,423.74Z" style="fill: #cad0dc"/>
    <path d="M445.11,365.31c-3.24,7.19-12,19.56-35.52,30.35,48.83-48.18,73.5-106.67,63-172.25,0,0,4.2,33.75-11.73,68.27a190.74,190.74,0,0,0,3.78-64.6q-0.07-.56-0.14-1.11A174.62,174.62,0,0,0,455,186.78c-20.92-60.69-66.38-109-66.38-125.79-4.4,5.12-7.88,12.75-9.82,21.91-39.17-37-50.51-54.43-50.51-65.13a165.89,165.89,0,0,0-20.37,30.32,136.57,136.57,0,0,0-11.81,28.75c-5.74,19.68-7.51,42.52,1.15,65.72,0.89,2.39,1.82,4.68,2.78,6.89l0.12,0.28c0.26,0.59.51,1.18,0.77,1.75a105.35,105.35,0,0,0,13.42,22.69,136.14,136.14,0,0,0,16.86,18.3q5.75,5.42,12,10.33c12,17.22,18.59,38.46,18.59,61.32a103.76,103.76,0,0,1-126.87,101c-27-5.15-42.62-18.79-50.4-28a50.52,50.52,0,0,1-6.35-9.17c24.2,8.67,51,6.86,67.25-2.13s26.32-15.84,34.38-13.18,14.26-5,8.59-13-20-19.35-41.48-16.19c-16.42,2.39-31.46,14-53,2.76a45.46,45.46,0,0,1-4-2.36c-1.42-.84,4.61,1.27,3.2.32a107.23,107.23,0,0,1-13.52-8.06c-0.32-.26,3.25,1,2.93.76-20.12-14.84-17.61-24.87-17-31.15a18,18,0,0,1,10.32-14.09c3,1.45,4.83,2.56,4.83,2.56s-1.27-2.32-2-3.54c0.24-.09.47-0.07,0.71-0.16,2.44,1.05,7.83,3.78,10.66,5.46,3.7,2.34,4.87,4.42,4.87,4.42s1-.3.25-2.34c-0.26-.84-1.38-3-5-6h0.23a34.25,34.25,0,0,1,6.2,3.68c1-3.36,2.89-7,2.48-13.24-0.25-4.41-.13-5.6-1-7.31-0.78-1.46.12-2.06,1.47-.54-0.23-1.2.53-2.39-1.47-3.49V211c2-5.26,36-18.94,38.44-20.54a33.72,33.72,0,0,0,10.15-9.74c1.89-2.7,3.38-6.48,3.74-12.22,0.12-2.59-.64-4.64-9.64-6.61-5.4-1.18-13.73-2.32-26.62-3.53-9.39-.83-14.9-6.93-18-12.56-0.57-1.21-1.15-2.31-1.73-3.41a25,25,0,0,1-1.33-3.95,74.8,74.8,0,0,1,28.93-35.9c0.76-.62-3,0.16-2.27-0.47s6.64-2.8,7.73-3.27c1.33-.56-5.66-3.23-11.88-2.58s-7.64,1.31-11,2.59c1.42-1.25,5.84-2.88,4.8-2.87-6.8.94-15.25,4.47-22.47,8.5a4.57,4.57,0,0,1,.43-2c-3.37,1.28-11.63,6.45-14,10.86a18.62,18.62,0,0,0,.14-2.53,41.85,41.85,0,0,0-6.89,6.47l-0.13.1c-19.49-7-36.67-7.51-51.18-4.34-3.18-2.86-8.29-7.19-15.52-21.43-0.47-.86-0.76,1.77-1.13.94C95.66,86,94,75.3,94.25,68c0,0-5.82,2.65-10.62,13.72-0.89,2-1.47,3.09-2,4.19-0.26.32,0.6-3.63,0.47-3.42-0.84,1.42-3,3.39-4,6-0.65,1.89-1.57,3-2.15,5.33l-0.14.22c0-.7.17-2.87,0-2.43a111.43,111.43,0,0,0-5.82,14,131.08,131.08,0,0,0-6.08,35.2c-0.11,1.14,0,2.43-.12,3.46-6.14,7-10.32,12.93-11.89,16C44,172.5,35.23,191.58,26.75,221.8a150.63,150.63,0,0,1,13.47-23.6c-7,16-13.86,41.24-15.22,80a207,207,0,0,1,6.55-23.71c-1.22,25.87,1.8,57.93,18.15,94.14,9.71,21.24,32.06,64.48,86.67,98.2,0,0,18.58,13.83,50.51,24.2,2.36,0.85,4.75,1.7,7.19,2.52q-1.15-.47-2.22-1a228.87,228.87,0,0,0,65.52,9.63c82.69,0.07,107.08-33.14,107.08-33.14l-0.24.18q1.75-1.65,3.37-3.43c-13,12.31-42.84,13.14-54,12.25l1.62-.48-0.69.3c3.47-.77,126-28.5,132.45-98.59a20.21,20.21,0,0,1-1.34,4.7Zm-35.93,30.54c0.39-.43.76-0.87,1.15-1.31l-0.9,1.19Z" style="fill: #cad0dc"/>
  </g>
</svg>
