<svg width="869" height="182" viewBox="0 0 869 182" fill="none" xmlns="http://www.w3.org/2000/svg">
<path d="M280 121.161H310.824C311.288 128.681 316.859 135.737 329.486 135.737C341.091 135.737 347.033 131.652 347.033 125.432C347.033 106.584 284.735 124.318 284.735 79.8455C284.735 59.5128 302.097 42.8009 329.764 42.8009C363.374 42.8009 374.979 64.2478 375.815 80.6811H346.476C345.826 73.625 340.441 67.2188 329.578 67.2188C319.737 67.2188 314.166 71.9538 314.166 78.1743C314.166 97.0216 376.279 78.1743 376.279 124.225C376.279 144.372 359.103 160.248 328.743 160.248C293.462 160.155 281.485 142.144 280 121.161Z" fill="black"/>
<path d="M416.109 45.3077V19.2186H385.656V157.556H416.109V70.0969H438.484V45.3077H416.109Z" fill="black"/>
<path d="M463.459 110.205C465.594 125.617 475.436 133.973 490.662 133.973C499.854 133.973 508.674 129.888 512.295 121.718H542.933C536.248 144.465 515.73 160.062 489.827 160.062C456.589 160.062 433.285 135.644 433.285 101.199C433.285 67.9615 456.403 42.708 489.641 42.708C522.879 42.708 545.347 67.9615 545.347 101.199C545.347 106.12 544.883 110.205 544.883 110.205H463.459ZM463.83 88.3871H514.802C512.666 75.7603 503.475 67.2187 489.27 67.2187C475.436 67.2187 466.43 75.5746 463.83 88.3871Z" fill="black"/>
<path d="M584.62 59.0485C589.726 49.3928 601.332 42.8009 618.044 42.8009C645.061 42.8009 659.359 60.8126 659.359 87.5515V157.556H628.906V90.8939C628.906 77.803 623.336 68.7971 609.873 68.7971C595.111 68.7971 586.941 78.2672 586.941 93.215V157.463H556.488V45.3077H584.62V59.0485Z" fill="black"/>
<path d="M726.949 42.8009C761.858 42.8009 778.385 67.4045 780.52 86.5303H749.232C746.911 76.8745 737.905 69.8184 726.764 69.8184C710.516 69.8184 701.046 82.6308 701.046 101.478C701.046 120.325 710.516 133.138 726.764 133.138C737.905 133.138 746.911 126.082 749.232 116.426H780.52C778.385 135.459 761.858 160.155 726.949 160.155C694.361 160.155 670.593 134.902 670.593 101.478C670.593 68.0544 694.361 42.8009 726.949 42.8009Z" fill="black"/>
<path d="M788.597 18.383C788.597 7.70602 796.303 0 806.98 0C817.657 0 825.364 7.70602 825.364 18.383C825.364 29.0601 817.657 36.5804 806.98 36.5804C796.396 36.5804 788.597 29.1529 788.597 18.383ZM791.847 45.3077H822.3V157.556H791.847V45.3077Z" fill="black"/>
<path d="M838.547 157.556V7.05615H869V157.556H838.547Z" fill="black"/>
<path d="M88.5023 128H181L131 182H39L88.5023 128Z" fill="#6D6AFB"/>
<path opacity="0.3" d="M88.5023 128H181L63.7512 155L88.5023 128Z" fill="black"/>
<path d="M240 64H49.9737L0 118H190.026L240 64Z" fill="#6D6AFB"/>
<path d="M108.844 0H201L151.23 54H59L108.844 0Z" fill="#6D6AFB"/>
</svg>
