<?xml version="1.0" encoding="utf-8"?>
<!-- Generator: Adobe Illustrator 19.2.1, SVG Export Plug-In . SVG Version: 6.00 Build 0)  -->
<svg version="1.1" id="Layer_1" xmlns="http://www.w3.org/2000/svg" xmlns:xlink="http://www.w3.org/1999/xlink" x="0px" y="0px"
	 viewBox="0 0 1120 776" style="enable-background:new 0 0 1120 776;" xml:space="preserve">
<style type="text/css">
	.st0{fill:#16161D;}
</style>
<g>
	<g>
		<path class="st0" d="M195,572c7,6.6,17.6,12.9,28.9,12.9c6.6,0,10.6-2.1,12.7-4.3c1.9-1.9,3.2-4.7,3.2-7.9c0-2.5-0.9-5.3-3.6-7.6
			c-3.2-2.8-8.1-4.2-16.3-6.6l-8.5-2.6c-5.3-1.7-13-4.5-18.1-10.2c-6.4-7-7.2-15.9-7.2-22.3c0-15.5,6-24.9,11.5-30.4
			c6.4-6.4,17-11.9,32.3-11.9c12.5,0,27,4,38.9,10.2l-13,25.5c-9.8-7.7-17.2-8.5-21.5-8.5c-3.2,0-7.6,0.8-10.8,3.8
			c-1.9,1.9-3.2,4-3.2,6.8c0,2.3,0.4,4,1.7,5.7c0.9,1.1,3.2,3.4,11,5.7l10,3c7.9,2.5,16.3,5.3,22.9,12.5c6.4,6.8,8.1,13.8,8.1,22.5
			c0,11.5-2.8,22.7-11.9,31.8c-10.8,10.8-23.8,12.9-37.2,12.9c-7.9,0-15.5-0.8-24.8-4.2c-2.1-0.8-10-3.8-19.1-10L195,572z"/>
		<path class="st0" d="M352.9,511.6v98.2h-32.7v-98.3h-26.6v-27.7h86.6v27.8H352.9z"/>
		<path class="st0" d="M481,511.6h-38.9v21H479v27.8h-36.9v21.7H481v27.7h-71.6v-126H481V511.6z"/>
		<path class="st0" d="M514.7,609.8v-126h32.7l60.3,77.1v-77.1h32.7v126h-32.7l-60.3-77.1v77.1H514.7z"/>
		<path class="st0" d="M761.3,606.4c-13,4.7-20.2,6.2-28.3,6.2c-21.9,0-38.4-8.7-48.8-18.9c-12.3-12.3-19.1-29.5-19.1-45.9
			c0-18,7.7-35,19.1-46.5c11.2-11.3,28-19.7,47.6-19.7c6,0,15.9,0.9,29.5,6.4v39.1c-10.6-13-23.1-13.8-28.5-13.8
			c-9.4,0-16.6,2.8-22.7,8.3c-7.7,7.2-11,17-11,25.9c0,8.7,3.6,18.3,10.2,24.6c5.5,5.1,14.2,8.7,23.4,8.7c4.9,0,17-0.6,28.5-13.2
			L761.3,606.4L761.3,606.4z"/>
		<path class="st0" d="M828.7,483.8v126H796v-126H828.7z"/>
		<path class="st0" d="M899.7,483.8v98.3H939v27.7h-72v-126H899.7z"/>
	</g>
	<path class="st0" d="M604,123h-88c-52.8,0-96,43.2-96,96v88c0,52.8,43.2,96,96,96h88c52.8,0,96-43.2,96-96v-88
		C700,166.2,656.8,123,604,123z M616,302.2c0,12.5-18.3,22.8-30.8,22.8h-50.4c-12.6,0-30.8-10.2-30.8-22.8V301h112V302.2z M616,275
		h-81.2c-12.5,0-30.8-10.3-30.8-22.8V251h81.2c12.5,0,30.8,10.3,30.8,22.8V275z M616,225H504v-1.2c0-12.5,18.2-22.8,30.8-22.8h50.4
		c12.6,0,30.8,10.2,30.8,22.8V225z"/>
</g>
</svg>
